<svg width="40px" height="40px" viewBox="0 95 40 40" version="1.1" xmlns="http://www.w3.org/2000/svg" xmlns:xlink="http://www.w3.org/1999/xlink">
    <!-- Generator: Sketch 42 (36781) - http://www.bohemiancoding.com/sketch -->
    <desc>Created with Sketch.</desc>
    <defs></defs>
    <g id="path" stroke="none" stroke-width="1" fill="none" fill-rule="evenodd" transform="translate(0.000000, 95.000000)">
        <rect id="Rectangle-9" fill="#CCCCCC" x="0" y="0" width="40" height="40" rx="4"></rect>
        <g transform="translate(6.000000, 6.000000)" id="Group" fill="#FFFFFF">
            <g>
                <polygon id="Shape" points="23.3534213 13.4637333 17.4066193 16.8553524 21.0929543 20.8678476 8.24877157 28.0156571 8.81275127 28.9745905 22.8735838 21.1484571 19.1781523 17.1271238 23.9310457 14.4182476"></polygon>
                <path d="M8.28743147,25.8348571 C8.2351269,25.7840381 2.77271066,20.5607238 1.51285279,17.0785143 C1.26497462,16.406819 1.14217259,15.7086095 1.14217259,15.0015619 C1.14217259,11.4928381 4.17128934,8.64034286 7.89173604,8.64034286 C11.6144569,8.64034286 14.6412995,11.4928381 14.6412995,15.0015619 C14.6412995,15.7152381 14.5162234,16.4156571 14.2728934,17.0807238 C13.7771371,18.444 12.5445685,20.2933714 10.7070863,22.4277714 L9.6177868,23.645219 L10.4660305,24.3809905 L11.5780711,23.1370286 C13.5292589,20.8722667 14.7959391,18.9566095 15.3417259,17.4541333 C15.6305381,16.6653333 15.7760812,15.841181 15.7760812,15.0015619 C15.7760812,10.885219 12.2398376,7.53558095 7.88946193,7.53558095 C3.54136041,7.53558095 0.00284263959,10.885219 0.00284263959,15.0015619 C0.00284263959,15.8345524 0.148385787,16.6587048 0.43719797,17.4475048 C1.7880203,21.1705524 7.25953299,26.4049143 7.49149239,26.6236571 L7.89855838,27.0103238 L8.69449746,26.2215238 L8.28743147,25.8348571 L8.28743147,25.8348571 Z" id="Shape"></path>
                <path d="M7.88946193,12.0341714 C6.02469036,12.0341714 4.50785787,13.5079238 4.50785787,15.3197333 C4.50785787,17.1293333 6.02469036,18.6030857 7.88946193,18.6030857 C9.7542335,18.6030857 11.2733401,17.1293333 11.2733401,15.3197333 C11.2733401,13.5079238 9.75650761,12.0341714 7.88946193,12.0341714 L7.88946193,12.0341714 Z M7.88946193,17.4983238 C6.65234518,17.4983238 5.64491371,16.5195048 5.64491371,15.3197333 C5.64491371,14.1155429 6.65234518,13.1389333 7.88946193,13.1389333 C9.12657868,13.1389333 10.1340102,14.1155429 10.1340102,15.3197333 C10.1362843,16.5195048 9.12657868,17.4983238 7.88946193,17.4983238 L7.88946193,17.4983238 Z" id="Shape"></path>
                <path d="M22.8826802,0.0232 C20.0582335,0.0232 17.7613807,2.19737143 17.7613807,4.86868571 C17.7613807,5.41885714 17.8591675,5.9535619 18.0456447,6.45954286 C18.8984365,8.81931429 22.3368934,12.1048762 22.4824365,12.2418667 L22.8917766,12.6285333 L23.6877157,11.8397333 L23.2783756,11.4530667 C23.2465381,11.4199238 19.885401,8.21169524 19.1212995,6.08834286 C18.9757563,5.69946667 18.8984365,5.29070476 18.8984365,4.86868571 C18.8984365,2.80499048 20.6836142,1.1279619 22.8826802,1.1279619 C25.077198,1.1279619 26.8578274,2.8072 26.8578274,4.86868571 C26.8578274,5.29291429 26.7873299,5.70388571 26.6395127,6.09718095 C26.3484264,6.90807619 25.5979695,8.03493333 24.4654619,9.35180952 L23.6536041,10.2665524 L24.5063959,10.9956952 L25.3409949,10.0588571 C26.5758376,8.62266667 27.3763249,7.4096381 27.7128934,6.46838095 C27.9039188,5.96019048 27.9971574,5.42327619 27.9971574,4.86868571 C27.9948832,2.19737143 25.7025787,0.0232 22.8826802,0.0232 L22.8826802,0.0232 Z" id="Shape"></path>
                <path d="M25.2022741,5.06533333 C25.2022741,3.82358095 24.1630051,2.8160381 22.8826802,2.8160381 C21.6023553,2.8160381 20.5630863,3.82579048 20.5630863,5.06533333 C20.5630863,6.30708571 21.6023553,7.31904762 22.8826802,7.31904762 C24.1630051,7.31904762 25.2022741,6.30929524 25.2022741,5.06533333 L25.2022741,5.06533333 Z M22.8826802,6.21428571 C22.2300102,6.21428571 21.7001421,5.70167619 21.7001421,5.06533333 C21.7001421,4.43340952 22.227736,3.9208 22.8826802,3.9208 C23.5376244,3.9208 24.0652183,4.43340952 24.0652183,5.06533333 C24.0652183,5.70167619 23.5353503,6.21428571 22.8826802,6.21428571 L22.8826802,6.21428571 Z" id="Shape"></path>
            </g>
        </g>
    </g>
</svg>