<svg width="40px" height="40px" viewBox="0 145 40 40" version="1.1" xmlns="http://www.w3.org/2000/svg" xmlns:xlink="http://www.w3.org/1999/xlink">
    <!-- Generator: Sketch 42 (36781) - http://www.bohemiancoding.com/sketch -->
    <desc>Created with Sketch.</desc>
    <defs></defs>
    <g id="top-" stroke="none" stroke-width="1" fill="none" fill-rule="evenodd" transform="translate(0.000000, 145.000000)">
        <rect id="Rectangle-9" fill="#CCCCCC" x="0" y="0" width="40" height="40" rx="4"></rect>
        <g id="top-(1)" transform="translate(8.000000, 7.000000)" fill="#FFFFFF">
            <g id="Group">
                <path d="M12.4225051,5.12808772 C12.1981,4.90619282 11.8007261,4.90619282 11.5763211,5.12808772 L0.200858176,16.377469 C-0.032877,16.6085897 -0.032877,16.9830374 0.200858176,17.2141878 C0.434593353,17.4453383 0.813276853,17.4453383 1.04704212,17.2141878 L11.4010047,6.97494023 L11.4010047,25.3998362 C11.4010047,25.726905 11.6686595,25.9915361 11.9993981,25.9915361 C12.3301667,25.9915361 12.5977914,25.7268752 12.5977914,25.3998362 L12.5977914,6.97488069 L22.9529278,17.2141878 C23.0697954,17.3297482 23.2229001,17.3875432 23.3760047,17.3875432 C23.5291094,17.3875432 23.682214,17.3297482 23.7990816,17.2141878 C24.0328168,16.9830671 24.0328168,16.6086195 23.7990816,16.377469 L12.4225051,5.12808772 L12.4225051,5.12808772 Z" id="Shape"></path>
                <path d="M0.623965176,1.19186373 L23.3760348,1.19186373 C23.7068035,1.19186373 23.9744281,0.927202868 23.9744281,0.600163817 C23.9744281,0.273095013 23.7067734,0.00846390157 23.3760348,0.00846390157 L0.623965176,0.00846393065 C0.2931965,0.00846393065 0.0255718235,0.273124794 0.0255718235,0.600163846 C0.0255718529,0.927202868 0.2931965,1.19186373 0.623965176,1.19186373 L0.623965176,1.19186373 Z" id="Shape"></path>
            </g>
        </g>
    </g>
</svg>